<?xml version="1.0" standalone="no"?>
<!DOCTYPE svg PUBLIC "-//W3C//DTD SVG 20010904//EN"
 "http://www.w3.org/TR/2001/REC-SVG-20010904/DTD/svg10.dtd">
<svg version="1.0" xmlns="http://www.w3.org/2000/svg"
 width="2000.000000pt" height="2000.000000pt" viewBox="0 0 2000.000000 2000.000000"
 preserveAspectRatio="xMidYMid meet">

<g transform="translate(0.000000,2000.000000) scale(0.100000,-0.100000)"
fill="#000000" stroke="none">
<path d="M4315 11953 c-294 -16 -678 -78 -985 -159 -121 -32 -411 -126 -406
-132 3 -2 35 3 73 11 37 9 149 30 248 46 760 128 1592 109 2335 -55 122 -27
411 -102 418 -109 2 -2 6 -448 9 -992 5 -893 4 -997 -11 -1083 -86 -487 -460
-906 -1126 -1261 -80 -42 -184 -94 -233 -116 -48 -21 -83 -39 -79 -41 15 -5
308 96 430 149 482 207 859 516 1052 866 60 106 114 251 142 378 19 83 21 140
28 775 5 377 8 865 9 1085 l1 401 -77 23 c-377 113 -765 183 -1163 211 -133 9
-521 11 -665 3z"/>
<path d="M2827 11430 c-26 -574 -31 -780 -31 -1310 l-1 -595 27 -95 c68 -244
194 -458 392 -668 228 -241 607 -492 926 -615 100 -38 252 -88 257 -84 1 2
-28 16 -65 32 -273 117 -602 317 -790 482 -381 334 -610 695 -642 1009 -5 55
-14 365 -20 691 -10 588 -25 1060 -39 1223 l-7 85 -7 -155z"/>
<path d="M4170 10993 c-60 -310 -174 -564 -360 -797 -143 -181 -205 -286 -235
-401 -20 -77 -20 -239 1 -319 48 -189 191 -373 396 -509 86 -58 150 -89 131
-65 -141 179 -207 325 -206 458 1 104 29 171 120 289 189 245 279 406 367 654
5 17 10 16 47 -14 78 -62 209 -191 255 -252 97 -129 164 -313 164 -452 0 -140
-56 -370 -140 -572 -20 -51 -35 -93 -33 -93 13 0 169 139 228 202 117 127 192
257 237 415 32 110 31 340 0 457 -100 366 -385 719 -850 1053 -48 35 -90 63
-93 63 -3 0 -16 -53 -29 -117z"/>
<path d="M7860 10921 c-52 -51 -52 -126 -1 -175 57 -55 150 -42 191 27 24 38
25 66 6 112 -18 42 -61 65 -121 65 -38 0 -52 -5 -75 -29z"/>
<path d="M6780 10155 l0 -755 90 0 90 0 0 345 0 345 315 0 315 0 0 70 0 70
-315 0 -315 0 0 265 0 265 368 2 367 3 3 73 3 72 -461 0 -460 0 0 -755z"/>
<path d="M10502 10838 l3 -73 223 -3 222 -2 0 -680 0 -680 90 0 90 0 0 680 0
680 228 2 227 3 3 73 3 72 -546 0 -546 0 3 -72z"/>
<path d="M8763 10490 c-123 -18 -220 -75 -284 -168 l-37 -52 -7 100 -7 100
-84 0 -84 0 0 -535 0 -535 89 0 89 0 4 323 c4 273 8 329 22 371 26 71 62 122
113 155 47 32 155 61 222 61 l41 0 0 95 c0 70 -3 95 -12 94 -7 -1 -36 -5 -65
-9z"/>
<path d="M9390 10494 c-152 -25 -242 -68 -323 -153 -101 -106 -147 -231 -147
-406 0 -213 81 -378 234 -477 88 -56 170 -79 291 -79 150 0 239 31 332 115 57
51 105 121 127 184 l15 42 -88 0 c-84 0 -88 -1 -99 -25 -24 -53 -102 -124
-161 -146 -80 -30 -204 -24 -279 15 -105 53 -179 161 -189 275 l-6 61 427 0
426 0 0 78 c-1 243 -141 442 -353 498 -56 15 -168 25 -207 18z m183 -174 c104
-39 178 -132 193 -242 l7 -48 -337 0 -336 0 0 25 c0 39 37 127 71 168 32 39
97 81 157 103 58 21 182 17 245 -6z"/>
<path d="M12140 10494 c-152 -25 -242 -68 -323 -153 -101 -106 -147 -231 -147
-406 0 -213 81 -378 234 -477 88 -56 170 -79 291 -79 150 0 239 31 332 115 57
51 105 121 127 184 l15 42 -88 0 c-84 0 -88 -1 -99 -25 -24 -53 -102 -124
-161 -146 -80 -30 -204 -24 -279 15 -105 53 -179 161 -189 275 l-6 61 427 0
426 0 0 78 c-1 243 -141 442 -353 498 -56 15 -168 25 -207 18z m183 -174 c104
-39 178 -132 193 -242 l7 -48 -337 0 -336 0 0 25 c0 39 37 127 71 168 32 39
97 81 157 103 58 21 182 17 245 -6z"/>
<path d="M13264 10490 c-165 -25 -319 -131 -388 -269 -86 -169 -86 -403 0
-572 15 -30 57 -84 93 -120 107 -107 212 -149 372 -150 112 0 171 12 253 53
109 55 206 172 232 281 l6 27 -91 0 -90 0 -22 -50 c-27 -64 -81 -112 -155
-140 -82 -31 -206 -25 -279 12 -105 54 -175 162 -196 299 -39 262 118 479 345
479 132 0 230 -53 280 -153 l28 -57 90 0 90 0 -7 28 c-23 97 -114 217 -203
269 -90 53 -245 81 -358 63z"/>
<path d="M14398 10490 c-203 -32 -368 -182 -423 -386 -21 -78 -22 -259 -1
-337 25 -93 73 -176 140 -242 106 -105 212 -146 376 -146 155 0 280 50 380
152 101 102 150 234 150 401 0 121 -13 183 -55 273 -82 172 -236 274 -435 288
-41 3 -100 2 -132 -3z m233 -178 c145 -70 219 -221 206 -417 -7 -96 -26 -152
-73 -222 -115 -168 -366 -191 -511 -47 -83 83 -120 199 -110 346 6 100 17 137
59 208 38 62 109 121 177 144 66 23 192 17 252 -12z"/>
<path d="M15630 10490 c-93 -17 -182 -69 -229 -131 -27 -38 -29 -38 -35 -17
-3 13 -6 47 -6 76 l0 52 -85 0 -85 0 0 -535 0 -535 89 0 89 0 4 338 c4 323 5
339 27 395 30 77 76 135 134 171 39 24 61 30 125 33 69 4 82 2 132 -24 65 -33
103 -84 125 -169 12 -47 15 -126 15 -401 l0 -343 90 0 90 0 0 308 c0 335 9
409 54 487 54 91 129 137 236 142 67 4 81 2 130 -24 34 -18 65 -43 82 -68 52
-76 58 -126 58 -502 l0 -343 90 0 90 0 0 343 c0 353 -6 429 -41 522 -102 273
-540 311 -719 63 l-27 -37 -38 54 c-62 91 -155 138 -290 149 -33 3 -80 1 -105
-4z"/>
<path d="M7850 9935 l0 -535 90 0 90 0 0 535 0 535 -90 0 -90 0 0 -535z"/>
<path d="M10408 8829 c-21 -11 -38 -26 -38 -34 0 -13 7 -12 40 5 22 11 40 27
40 35 0 18 3 18 -42 -6z"/>
<path d="M16438 8829 c-21 -11 -38 -26 -38 -34 0 -13 7 -12 40 5 22 11 40 27
40 35 0 18 3 18 -42 -6z"/>
<path d="M6840 8745 c0 -10 11 -15 35 -15 l35 0 0 -110 c0 -103 1 -110 20
-110 18 0 20 8 22 108 l3 107 38 3 c24 2 37 8 37 18 0 11 -19 14 -95 14 -78 0
-95 -3 -95 -15z"/>
<path d="M7260 8635 l0 -125 80 0 c64 0 80 3 80 15 0 12 -13 15 -60 15 l-60 0
0 40 0 40 55 0 c42 0 55 3 55 15 0 12 -13 15 -55 15 l-55 0 0 40 0 40 60 0
c47 0 60 3 60 15 0 12 -16 15 -80 15 l-80 0 0 -125z"/>
<path d="M7701 8746 c-35 -19 -50 -54 -51 -114 0 -48 4 -58 34 -88 28 -28 42
-34 75 -34 64 0 111 30 111 71 0 15 -38 10 -47 -5 -23 -42 -101 -35 -122 10
-29 64 -3 129 56 140 26 5 36 2 56 -20 27 -29 57 -34 57 -11 0 9 -11 27 -25
40 -19 20 -34 25 -72 25 -26 -1 -59 -7 -72 -14z"/>
<path d="M8110 8635 c0 -118 1 -125 20 -125 17 0 19 8 22 88 l3 87 59 -87 c46
-69 64 -88 83 -88 23 0 23 0 23 125 l0 125 -25 0 c-25 0 -25 -1 -25 -87 l0
-88 -58 87 c-43 67 -62 88 -79 88 -23 0 -23 -2 -23 -125z"/>
<path d="M8598 8737 c-48 -39 -60 -103 -32 -163 20 -41 59 -64 109 -64 70 0
125 54 125 124 0 39 -24 91 -51 110 -36 25 -118 21 -151 -7z m129 -31 c52 -45
32 -146 -32 -158 -87 -17 -138 106 -67 162 33 27 65 25 99 -4z"/>
<path d="M9030 8635 l0 -125 80 0 c64 0 80 3 80 15 0 12 -13 15 -55 15 l-55 0
0 110 0 110 -25 0 -25 0 0 -125z"/>
<path d="M9468 8745 c-39 -22 -63 -90 -49 -143 15 -55 60 -92 112 -92 87 0
135 55 126 144 -6 69 -47 106 -115 106 -26 -1 -59 -7 -74 -15z m123 -44 c58
-58 26 -151 -52 -151 -53 0 -79 27 -79 81 0 49 14 77 43 89 38 15 58 11 88
-19z"/>
<path d="M9928 8731 c-31 -28 -33 -33 -33 -96 0 -63 2 -68 33 -96 37 -33 94
-39 128 -14 25 19 34 19 34 0 0 -8 9 -15 20 -15 18 0 20 7 20 70 l0 70 -55 0
c-42 0 -55 -3 -55 -15 0 -10 10 -15 30 -15 36 0 41 -27 10 -55 -31 -28 -79
-24 -107 9 -33 39 -31 89 6 127 35 34 59 36 94 9 25 -20 67 -27 67 -12 -1 13
-24 38 -47 50 -12 7 -42 12 -67 12 -36 0 -52 -6 -78 -29z"/>
<path d="M10360 8635 l0 -125 25 0 25 0 0 125 0 125 -25 0 -25 0 0 -125z"/>
<path d="M10682 8643 c-23 -65 -42 -121 -42 -125 0 -5 9 -8 19 -8 12 0 23 11
30 30 9 28 13 30 61 30 48 0 52 -2 61 -30 7 -20 18 -30 31 -30 23 0 24 -6 -27
138 -37 103 -42 112 -65 112 -24 0 -29 -9 -68 -117z m86 18 c17 -56 16 -61
-23 -61 -19 0 -35 1 -35 3 0 15 34 97 39 97 4 0 13 -17 19 -39z"/>
<path d="M11390 8680 c29 -58 40 -92 40 -125 0 -38 3 -45 20 -45 17 0 20 7 20
40 0 27 13 67 40 120 22 44 40 82 40 85 0 3 -9 5 -20 5 -14 0 -28 -17 -49 -57
l-29 -58 -28 58 c-22 45 -33 57 -51 57 -23 0 -22 -1 17 -80z"/>
<path d="M12089 8732 c-55 -49 -51 -156 9 -202 48 -38 140 -22 167 30 15 29
15 30 -7 30 -13 0 -29 -9 -36 -20 -19 -31 -85 -28 -111 6 -36 46 -22 121 26
143 36 16 51 14 79 -14 31 -31 64 -34 57 -5 -17 63 -128 82 -184 32z"/>
<path d="M12558 8745 c-39 -22 -63 -90 -49 -143 15 -55 60 -92 112 -92 87 0
135 55 126 144 -6 69 -47 106 -115 106 -26 -1 -59 -7 -74 -15z m123 -44 c58
-58 26 -151 -52 -151 -53 0 -79 27 -79 81 0 49 14 77 43 89 38 15 58 11 88
-19z"/>
<path d="M12990 8635 c0 -118 1 -125 20 -125 18 0 20 7 20 88 l1 87 35 -67
c24 -47 40 -68 53 -68 13 0 30 21 54 68 l36 67 1 -87 c0 -81 2 -88 20 -88 19
0 20 7 20 125 l0 125 -25 0 c-21 0 -31 -11 -62 -75 -21 -41 -40 -75 -43 -75
-3 0 -22 34 -43 75 -31 64 -41 75 -62 75 l-25 0 0 -125z"/>
<path d="M13492 8659 c3 -96 4 -102 31 -125 19 -16 40 -24 67 -24 27 0 48 8
67 24 27 23 28 29 31 125 4 97 3 101 -17 101 -20 0 -21 -5 -21 -83 0 -100 -15
-130 -63 -125 -43 4 -57 36 -57 131 0 71 -2 77 -21 77 -20 0 -21 -4 -17 -101z"/>
<path d="M13930 8635 c0 -118 1 -125 20 -125 17 0 19 8 22 88 l3 87 59 -87
c46 -69 64 -88 83 -88 23 0 23 0 23 125 l0 125 -25 0 c-25 0 -25 -1 -25 -87
l0 -88 -58 87 c-43 67 -62 88 -79 88 -23 0 -23 -2 -23 -125z"/>
<path d="M14380 8635 c0 -118 1 -125 20 -125 19 0 20 7 20 125 0 118 -1 125
-20 125 -19 0 -20 -7 -20 -125z"/>
<path d="M14690 8732 c-55 -56 -44 -174 21 -207 48 -25 106 -19 140 14 16 16
29 34 29 40 0 18 -32 12 -57 -11 -30 -28 -82 -27 -105 3 -28 33 -24 104 7 134
31 32 56 31 93 0 56 -47 86 -22 36 29 -22 22 -36 26 -81 26 -46 0 -59 -4 -83
-28z"/>
<path d="M15152 8643 c-23 -65 -42 -121 -42 -125 0 -5 9 -8 19 -8 12 0 23 11
30 30 9 28 13 30 61 30 48 0 52 -2 61 -30 7 -20 18 -30 31 -30 23 0 24 -6 -27
138 -37 103 -42 112 -65 112 -24 0 -29 -9 -68 -117z m86 18 c17 -56 16 -61
-23 -61 -19 0 -35 1 -35 3 0 15 34 97 39 97 4 0 13 -17 19 -39z"/>
<path d="M15590 8732 c-56 -56 -49 -165 13 -202 50 -31 112 -27 148 9 16 16
29 34 29 40 0 19 -45 12 -58 -9 -9 -14 -23 -20 -51 -20 -51 0 -74 26 -75 86
-1 38 4 50 27 70 36 31 62 30 93 -1 25 -25 64 -34 64 -14 0 6 -13 24 -29 40
-25 25 -37 29 -81 29 -43 0 -56 -5 -80 -28z"/>
<path d="M16020 8635 c0 -118 1 -125 20 -125 19 0 20 7 20 125 0 118 -1 125
-20 125 -19 0 -20 -7 -20 -125z"/>
<path d="M16338 8737 c-48 -39 -60 -103 -32 -163 20 -41 59 -64 109 -64 70 0
125 54 125 124 0 39 -24 91 -51 110 -36 25 -118 21 -151 -7z m129 -31 c52 -45
32 -146 -32 -158 -87 -17 -138 106 -67 162 33 27 65 25 99 -4z"/>
<path d="M16770 8635 l0 -125 25 0 c24 0 24 2 27 87 l3 86 58 -86 c40 -61 63
-87 77 -87 19 0 20 7 20 125 0 118 -1 125 -20 125 -17 0 -19 -8 -22 -87 l-3
-88 -59 88 c-46 68 -64 87 -83 87 -23 0 -23 0 -23 -125z"/>
</g>
</svg>
